<?xml version="1.0" encoding="UTF-8"?>
<svg xmlns="http://www.w3.org/2000/svg" width="140.20019531147716" height="71.41400146484375" viewBox="500.00000000102284 277.0 140.20019531147716 71.41400146484375" preserveAspectRatio="none">
  <g>
    <defs>
      <path id="s-Path_6-d1224" d="M538.7020203515267 285.0 C539.1004360685992 285.4049280692111 539.4452542040497 285.8593082915029 539.7280203744149 286.35199999809265 C540.0134446671311 286.8782794182182 540.2027465962504 287.4512648587985 540.2870203896737 288.0440000295639 C540.4260376233393 289.2926166256768 540.1508404882311 290.55297029957944 539.5040203973031 291.6299999952316 C538.8885072098685 292.67708685741667 538.0999942357525 293.6123471043796 537.1720203801369 294.39600002765656 C536.7219206354955 294.7900448560565 536.2462122362278 295.153841507342 535.7480203553415 295.4850000143051 L535.3620240136361 295.7300033569336 L534.9760240062451 295.95900335907936 L534.2560239776349 296.3740033507347 C530.3996531005415 298.5522824123932 526.399393512809 300.46537742160467 522.2830244048811 302.10000318288803 C521.2550243680056 302.5046698451042 520.2250243966158 302.90100318193436 519.1930244907117 303.28900319337845 C518.1550245031094 303.66300320625305 517.1190246089673 304.03900319337845 516.0750244601941 304.3890032172203 C513.9820245250439 305.0890032052994 511.91402468526127 305.7600032687187 509.8090246661878 306.3890032172203 C508.75969133221867 306.7050032218297 507.70602466110154 307.0106698870659 506.64802465283634 307.3060032129288 L505.0660246356702 307.7430032193661 C504.6026166145932 307.8569390252887 504.152222351933 308.018464348594 503.72202465379 308.22500321269035 C503.3260653770675 308.419874573842 502.9762455819424 308.69707096298987 502.69602463090183 309.0380032360554 C502.3932666271776 309.404001484966 502.161915822196 309.8236216476025 502.0140246494985 310.2750032246113 C501.85318222394386 310.7424197718735 501.8015240519139 311.2405277214923 501.8630246564126 311.7310031950474 C501.9469002802906 312.25722878640113 502.1653153945723 312.75296908622437 502.4970246597505 313.1700032055378 C501.99812589473595 312.86500909954424 501.59555706538447 312.4249919935394 501.33602464639904 311.90100315213203 C501.08030610283424 311.33927548452726 500.96760832450826 310.7228736184784 501.00802463733913 310.10700312256813 C501.04011938408473 309.47634305795697 501.1993111124754 308.85862087185876 501.47602242672207 308.29100036621094 C501.7689895047894 307.69396320709654 502.18797661367626 307.16749978834855 502.70402247154476 306.7480003833771 C503.19675584998566 306.3634640692308 503.73150787567056 306.0360374764666 504.29802245342495 305.7720003724098 C504.804022435782 305.5220003724098 505.29802245342495 305.3010003864765 505.79802245342495 305.0630003809929 C506.79802245342495 304.5963337222735 507.79802245342495 304.1423337260882 508.79802245342495 303.701000392437 C510.80302256786587 302.8100004196167 512.8450223847603 301.96100038290024 514.8630225106454 301.14300030469894 L520.9200226708626 298.70900028944016 C524.9550225182747 297.0940002799034 528.9770228310799 295.47900027036667 532.9880225106454 293.8090001940727 L533.7410225316262 293.4950001835823 L534.0880225344872 293.3520001769066 L534.420022521851 293.20000018179417 C534.8670225187516 292.9850001782179 535.3090225204205 292.74100019037724 535.738022480843 292.481000199914 C536.5885060623099 291.97473147928446 537.3603578198538 291.3467385867369 538.0290223702168 290.6170002371073 C539.0780315181003 289.54453728031615 539.5217013577409 288.01425219237973 539.2090223177647 286.5470000654459 C539.093982026697 286.01518684420074 538.9240710291712 285.4967424558237 538.7020203515267 285.0 Z "></path>
      <path id="s-Path_7-d1224" d="M535.6091101133775 298.0 C536.1487718400153 298.0744024551186 536.6394226483135 298.35431355951374 536.9781100714158 298.7810000181198 C537.3498858753243 299.22241564939713 537.5922153476167 299.75830996965675 537.6781100594949 300.3289999961853 C537.7754013026718 300.93599621646 537.7062714204708 301.5581651305163 537.4781100565147 302.1289999485016 C537.2311371482738 302.70911907042876 536.8471290901499 303.22078668235 536.3591100984763 303.6200000047684 C535.9313540253232 303.96369094227214 535.4799014190066 304.2768005624048 535.0081101471137 304.55699998140335 L533.7161100918006 305.3569999933243 C532.849443456923 305.87899998823804 531.9727767521094 306.38233331839245 531.0861099773597 306.86699998378754 C527.5380854479212 308.7896417422714 523.870579372838 310.4831077901264 520.1061104351232 311.9370001554489 L517.2801104599189 312.9940001964569 C516.3321104460906 313.32400020956993 515.3801104837607 313.6610001921654 514.4331105762672 313.9750002026558 C512.5391105228614 314.6030002236366 510.63811049997315 315.2120001912117 508.7181104236792 315.7750001549721 C507.75877708335224 316.0576668183009 506.79544371505085 316.33000014225644 505.82811031877503 316.5920001268387 C504.9666996871509 316.75478281682956 504.13900193108645 317.0621264677121 503.3801103645514 317.5010001063347 C501.88618958393926 318.5234884601891 501.4982593167318 320.5941802763008 502.5207476705862 322.08810105691293 C502.54009850819597 322.1163738663963 502.55988846837363 322.14434360875487 502.58011035263047 322.1720001101494 C502.1171487729334 321.9073666144977 501.72948505517894 321.5286542867221 501.45411030590043 321.0720000863075 C501.1740752571779 320.57869347578344 501.01952762620556 320.0240391822141 501.00411031782136 319.4570000767708 C500.953953578283 318.2624724868065 501.3643850280917 317.0931368023897 502.1501103454779 316.1919999718666 C502.55697314753513 315.7448835334312 503.03222573431424 315.3651540142383 503.5581103378485 315.0669999718666 C504.0581103378485 314.7739999592304 504.53011034070954 314.5669999718666 504.97511039316163 314.345999956131 C505.88177706936506 313.9153332710266 506.7924437735429 313.49499992529553 507.7071105056952 313.0849999189377 C509.53511045515046 312.2599999308586 511.3821104580115 311.4849998950958 513.2371107155036 310.72500002384186 L516.010110717411 309.6190000772476 L518.7831107193183 308.5350000858307 L529.883111100788 304.2720000743866 L532.6691111141395 303.21200013160706 L534.0691110902976 302.6820001602173 C534.5008699690304 302.53488617788145 534.9238899124001 302.3632742937767 535.3361110502433 302.1680001616478 C535.6815659144474 302.0081045239041 535.9854824640969 301.77058415850144 536.2241110616874 301.47400015592575 C536.4647537605844 301.15173785638956 536.6183735755235 300.772854904838 536.6701110714625 300.3740001320839 C536.7306044979503 299.9384352252081 536.6782607660791 299.4945465781781 536.5181110763501 299.0850000977516 C536.3591125339027 298.6238636409246 536.0352662438985 298.23731481355924 535.6091101133775 298.0 Z "></path>
      <path id="s-Path_8-d1224" d="M535.6478466896729 306.0 C536.190282549671 306.07591009443405 536.6828723424433 306.35877279259023 537.0218466429428 306.78899997472763 C537.3930080529292 307.2350168592898 537.6329770563971 307.77555308128683 537.7148466615395 308.3499999642372 C537.8079914248215 308.9584240877391 537.7332958628494 309.5808870715361 537.4988466559366 310.1499999165535 C537.2443837481984 310.7297885472689 536.8536006865648 311.2396248749201 536.3598465977625 311.63599985837936 C535.9288996830271 311.9765401287662 535.4759117959777 312.2882198691841 535.0038466511683 312.56899988651276 C534.5738466440157 312.8409999012947 534.1388466416315 313.1039999127388 533.703846698852 313.3689998984337 C532.83251333818 313.8929999073347 531.9501799800511 314.3983332514763 531.0568466244654 314.8849999308586 C527.4863148841108 316.8164396712341 523.7957615980762 318.5172540185938 520.0078468380885 319.97699993848795 L517.163846736999 321.0379999279976 C516.210846727939 321.3699999153614 515.2518467961268 321.7079999446869 514.3008468209223 322.0239999294281 C512.4008468447641 322.65599995851517 510.48384690866027 323.2689999341965 508.551846748443 323.8329999446869 C507.5871800639744 324.1176666021347 506.6181800423578 324.3919999400774 505.64484668359313 324.65599995851517 C504.799250774026 324.81013518149274 503.99465531858186 325.13769373655083 503.28184676751647 325.61799997091293 C502.6317593397698 326.1634717530351 502.1937336181239 326.92054451500417 502.04484677896056 327.755999982357 C501.95689338283046 328.19512289451586 501.9785339323018 328.64923093449806 502.10784677997384 329.0780000090599 C502.2594844749606 329.5448158487603 502.50829142797545 329.97426345182174 502.8378467990473 330.33799999952316 C502.35668200978233 330.10406354629924 501.9380933826012 329.75883934487274 501.61684684291635 329.33100003004074 C501.2833109184471 328.86269137762235 501.07939988582893 328.3144432949378 501.02584682241235 327.7420000433922 C500.9001783909147 326.54792176053695 501.23593583330296 325.3498619603064 501.96384684577737 324.39500015974045 C502.34942393167915 323.9114979322891 502.8152089072526 323.4978050790739 503.34084682002816 323.1720001101494 C503.8094290276198 322.89026979456037 504.2935316174717 322.6351978181524 504.7908468677119 322.4080001115799 C505.7028468880569 321.97533345222473 506.61918024555 321.5530001322428 507.5398469401911 321.1410001516342 C509.3788469268397 320.3110001683235 511.23984698787484 319.53000020980835 513.1028471423701 318.7680002450943 L515.8938470317439 317.6560002565384 L518.683846993597 316.5680001974106 L529.8548474220947 312.28900146484375 L532.654847374411 311.2220014333725 L534.0548473505692 310.6880014538765 C534.4916591754679 310.53841609328424 534.9202574302906 310.36584187258745 535.3388473896698 310.1710014343262 C535.6876721725699 310.01198255240024 535.9955460028724 309.775261788454 536.238847365828 309.47900146245956 C536.4836245951461 309.15819366382016 536.640479818225 308.7789832371084 536.693847378941 308.3790014386177 C536.7579439403581 307.94027561251943 536.707292400441 307.49233684020334 536.5468473790602 307.0790014863014 C536.3886431174833 306.6219698863414 536.0688137811685 306.2381032961148 535.6478466896729 306.0 Z "></path>
      <path id="s-Path_9-d1224" d="M536.594524023906 314.0 C537.1329299311452 314.0736742520727 537.6227586962058 314.35209192571637 537.9615240076936 314.7770000100136 C538.3319378449198 315.217351036923 538.5741457855743 315.7512465435468 538.6615239957727 316.31999999284744 C538.7589316687317 316.92345707524566 538.692260707503 317.542149768752 538.4685239920772 318.1110000014305 C538.2244909811567 318.69149758927267 537.8432166198996 319.20421037914286 537.3575240502513 319.60499995946884 C536.931183814508 319.95024637339634 536.4803307394764 320.2640722068783 536.0085240731395 320.54399996995926 L534.7205240855372 321.33799999952316 C533.8538574506597 321.85866667826974 532.9798574576533 322.3606666922569 532.0985241065181 322.84400004148483 C528.5608685349827 324.76316831072904 524.9036829747691 326.4533097044053 521.1495237479365 327.9039999842644 C520.2115237841762 328.26266664266586 519.2721904247758 328.61433329184854 518.3315236697352 328.9589999318123 C517.3855236897624 329.2889999449253 516.4375236163295 329.62499994039536 515.4915237555659 329.93799990415573 C513.6025236973918 330.5639998912811 511.70652366973525 331.17099994421005 509.7915239463008 331.7289999127388 C508.8348573177811 332.0103332400322 507.87385735211336 332.28166657686234 506.9085240492976 332.5429999232292 C506.04108122130526 332.7108542001461 505.2041742709057 333.00960500823567 504.42652393676406 333.42899990081787 C503.7350476618934 333.90499853591086 503.2342149601563 334.61105567851115 503.0135239491618 335.4209998846054 C502.7290048301044 336.32585658299126 502.89945823657706 337.3146355697636 503.47052393652564 338.0719999074936 C503.01736216954953 337.7921955619628 502.64503292297934 337.39883661239963 502.3905238936103 336.93099987506866 C502.13396648129356 336.42849741462834 502.00029240853195 335.87220759029015 502.0005239079154 335.30799984931946 C501.98261687438617 334.11563283529927 502.4243527729029 332.9609574285063 503.23352394796973 332.0849997997284 C503.6497330602038 331.6545589596502 504.1280397284039 331.288834687324 504.65252397753363 330.9999997615814 C505.15252397753363 330.7179997563362 505.60852394796973 330.5129997730255 506.0525239536918 330.29999977350235 C506.95652391808795 329.86999978621805 507.86485721963214 329.450333138307 508.77752385832434 329.04099982976913 C510.600523812548 328.21699982881546 512.4425238201774 327.4409998059273 514.2925237248099 326.6869997382164 L517.0565236637748 325.58699971437454 L519.821523768679 324.50599974393845 L530.8925238678611 320.2519995570183 L533.6705239842094 319.1949995160103 L535.0635239908851 318.6659995317459 C535.4932304511791 318.5198829461582 535.9139589699699 318.34858632981843 536.3235239813483 318.1529995203018 C536.6666941102333 317.9925934243839 536.9682209375146 317.75506831195565 537.2045239637054 317.4589995145798 C537.4433851588924 317.13613009013784 537.5955755607232 316.7573756896619 537.6465239653743 316.3589994907379 C537.705816128929 315.9242441555025 537.65279247018 315.4814621670039 537.4925239662088 315.0729994773865 C537.3339583704019 314.6179965417609 537.0144723782677 314.23625007782107 536.594524023906 314.0 Z "></path>
      <path id="s-Path_10-d1224" d="M535.6322961972079 322.0 C536.3206914284015 322.1425131733672 536.9079288425739 322.591230369424 537.2262961790881 323.21800005435944 C537.9772809964514 324.607714097346 537.6364645590688 326.3505541510673 536.4172961638293 327.3550001382828 C536.1414061280948 327.5968792998084 535.8468209849824 327.8165642537765 535.5362961814723 328.012000143528 L534.6922961995921 328.53900015354156 C532.4562961385569 329.90900015830994 530.152296237739 331.1630002260208 527.8112961576304 332.33900010585785 C523.1230323050944 334.6478869503462 518.3084010443008 336.6907917037687 513.390296630653 338.4580000638961 L509.7392966077647 339.78400003910065 L506.0702966974101 341.0640000104904 C505.52795105522307 341.2296157293807 504.99684885062504 341.4300316594006 504.48029666403147 341.6640000343323 C504.29799716009325 341.75560446329445 504.12487528855405 341.8644334846848 503.96329664448115 341.98900002241135 C503.8159099313596 342.1021832091236 503.68410396079173 342.23432542511296 503.57129665473315 342.38200002908707 C503.0893252328116 342.9878909559005 502.9218734579514 343.7876495510014 503.12029664972636 344.5360000729561 C503.2870525366296 344.9093692152224 503.55134684683964 345.23101366737194 503.88529663542124 345.46700006723404 C503.98529663691136 345.5390000641346 504.0932966397128 345.6180000603199 504.1922966466269 345.6820000708103 C504.272670129058 345.73493154682205 504.3576863644379 345.7804520518261 504.44629665473315 345.8180000782013 C504.5232966543159 345.8640000782907 504.6462966577134 345.89000007510185 504.7462966666541 345.93400007486343 C504.8462966755948 345.978000074625 504.97529666879984 345.99100007489324 505.0922966525874 346.02100007236004 C506.2257323264383 346.15319457226474 507.37444011666645 346.041699338354 508.4612966106257 345.69400008022785 C510.90465326518046 344.9180666401811 513.2657099172131 343.9035055791345 515.5102963970027 342.66500003635883 C513.635055019342 344.5638284968385 511.4704581225899 346.1532697655888 509.09729629019114 347.37400014698505 C507.78882913880096 348.04958362901084 506.3388571146129 348.40599366656176 504.8662963435969 348.4140001088381 C504.443122894322 348.3976559193329 504.023443719825 348.3305072504128 503.6162963435969 348.21400010585785 C503.3959972465924 348.1515676266948 503.18125976350825 348.0709574535943 502.9742963240466 347.9730001091957 C502.7862963304839 347.884000107646 502.6202963219008 347.7960001081228 502.44229631880137 347.69500011205673 C501.6554540581543 347.2606005917014 501.00266885285095 346.61853947414113 500.5552963540873 345.8390001654625 C500.1080811146072 344.99812884226844 499.9243968798899 344.0417160855712 500.02829634407374 343.09500020742416 C500.1186767168751 342.2066121851784 500.4130135748942 341.3509817981924 500.88829635837885 340.59500020742416 C501.13564365684783 340.2017292327781 501.43239901318606 339.84179154890535 501.7712963745913 339.5240002274513 C502.0980326261176 339.2204807130952 502.45797832420277 338.95479851039175 502.84429632881495 338.73200023174286 C503.18728188337724 338.5349602209585 503.541937125574 338.35896840381054 503.9062963650546 338.2050002217293 C504.2422963605246 338.0600002259016 504.5342963860354 337.9440002143383 504.8372963593325 337.82300022244453 L508.47129642227503 336.40400019288063 L512.1222964451632 335.0310001671314 C516.9972964451632 333.25100019574165 521.8342963383517 331.5310001671314 526.6632968113742 329.71600010991096 C529.0779634640536 328.81333346168196 531.4886300887586 327.88900012771285 533.8952966854891 326.9430001080036 C534.4692522049575 326.74966109314636 535.0275531107216 326.51263393891463 535.5652966425738 326.2340001165867 C536.0264307584364 325.98285963829085 536.3910497067308 325.58515751037186 536.6012966559252 325.10400012135506 C536.8236415337574 324.5752517982045 536.8644499974032 323.98739882518885 536.7172966525874 323.43300011754036 C536.5836852067225 322.81953304667366 536.1865280939332 322.29499300018136 535.6322961972079 322.0 Z "></path>
    </defs>
    <text x="545.0" y="304.48046875" font-family="SegoeUI" font-weight="400" font-style="normal" font-size="30.0" fill="#FFFFFF" id="s-Paragraph_3-d1224">
      <tspan font-family="SegoeUI" font-weight="400" font-style="normal" font-size="30.0" fill="#FFFFFF" dy="0.0" x="545.0">موهوب</tspan>
    </text>
    <text x="545.0" y="337.068359375" font-family="Cairo" font-weight="400" font-style="normal" font-size="23.0" fill="#FFFFFF" id="s-Paragraph_4-d1224">
      <tspan font-family="Cairo" font-weight="400" font-style="normal" font-size="23.0" fill="#FFFFFF" dy="0.0" x="545.0">Mwhob</tspan>
    </text>
    <g>
      <use xmlns:xlink="http://www.w3.org/1999/xlink" xlink:href="#s-Path_6-d1224" fill="#FFFFFF" fill-opacity="1.0" filter="none"></use>
    </g>
    <g>
      <use xmlns:xlink="http://www.w3.org/1999/xlink" xlink:href="#s-Path_7-d1224" fill="#FFFFFF" fill-opacity="1.0" filter="none"></use>
    </g>
    <g>
      <use xmlns:xlink="http://www.w3.org/1999/xlink" xlink:href="#s-Path_8-d1224" fill="#FFFFFF" fill-opacity="1.0" filter="none"></use>
    </g>
    <g>
      <use xmlns:xlink="http://www.w3.org/1999/xlink" xlink:href="#s-Path_9-d1224" fill="#FFFFFF" fill-opacity="1.0" filter="none"></use>
    </g>
    <g>
      <use xmlns:xlink="http://www.w3.org/1999/xlink" xlink:href="#s-Path_10-d1224" fill="#FFFFFF" fill-opacity="1.0" filter="none"></use>
    </g>
  </g>
</svg>
