<?xml version="1.0" encoding="UTF-8"?>
<svg xmlns="http://www.w3.org/2000/svg" width="140.20019531147716" height="71.41400146484375" viewBox="469.00000000102284 262.0 140.20019531147716 71.41400146484375" preserveAspectRatio="none">
  <g>
    <defs>
      <path id="s-Path_1-d1224" d="M507.70202035152676 270.0 C508.10043606859915 270.4049280692111 508.4452542040496 270.8593082915029 508.72802037441494 271.35199999809265 C509.0134446671312 271.8782794182182 509.2027465962505 272.4512648587985 509.2870203896737 273.0440000295639 C509.4260376233393 274.2926166256768 509.1508404882311 275.55297029957944 508.5040203973031 276.6299999952316 C507.88850720986846 277.67708685741667 507.0999942357525 278.6123471043796 506.172020380137 279.39600002765656 C505.7219206354955 279.7900448560565 505.24621223622785 280.153841507342 504.74802035534145 280.4850000143051 L504.36202401363613 280.7300033569336 L503.97602400624515 280.95900335907936 L503.2560239776349 281.3740033507347 C499.39965310054146 283.5522824123932 495.39939351280896 285.46537742160467 491.2830244048811 287.10000318288803 C490.2550243680056 287.5046698451042 489.2250243966158 287.90100318193436 488.1930244907117 288.28900319337845 C487.1550245031095 288.66300320625305 486.1190246089673 289.03900319337845 485.07502446019413 289.3890032172203 C482.982024525044 290.0890032052994 480.91402468526127 290.7600032687187 478.8090246661878 291.3890032172203 C477.75969133221867 291.7050032218297 476.70602466110154 292.0106698870659 475.64802465283634 292.3060032129288 L474.0660246356702 292.7430032193661 C473.6026166145932 292.8569390252887 473.152222351933 293.018464348594 472.72202465379 293.22500321269035 C472.3260653770675 293.419874573842 471.9762455819424 293.69707096298987 471.69602463090183 294.0380032360554 C471.3932666271776 294.404001484966 471.161915822196 294.8236216476025 471.0140246494985 295.2750032246113 C470.85318222394386 295.7424197718735 470.8015240519139 296.2405277214923 470.8630246564126 296.7310031950474 C470.9469002802906 297.25722878640113 471.1653153945723 297.75296908622437 471.4970246597505 298.1700032055378 C470.99812589473595 297.86500909954424 470.59555706538447 297.4249919935394 470.33602464639904 296.90100315213203 C470.08030610283424 296.33927548452726 469.96760832450826 295.7228736184784 470.00802463733913 295.10700312256813 C470.04011938408473 294.47634305795697 470.1993111124754 293.85862087185876 470.47602242672207 293.29100036621094 C470.7689895047894 292.69396320709654 471.18797661367626 292.16749978834855 471.70402247154476 291.7480003833771 C472.19675584998566 291.3634640692308 472.73150787567056 291.0360374764666 473.29802245342495 290.7720003724098 C473.804022435782 290.5220003724098 474.29802245342495 290.3010003864765 474.79802245342495 290.0630003809929 C475.79802245342495 289.5963337222735 476.79802245342495 289.1423337260882 477.79802245342495 288.701000392437 C479.80302256786587 287.8100004196167 481.8450223847604 286.96100038290024 483.8630225106454 286.14300030469894 L489.9200226708627 283.70900028944016 C493.9550225182748 282.0940002799034 497.97702283108 280.47900027036667 501.9880225106454 278.8090001940727 L502.74102253162624 278.4950001835823 L503.08802253448727 278.3520001769066 L503.4200225218511 278.20000018179417 C503.86702251875164 277.9850001782179 504.30902252042057 277.74100019037724 504.7380224808431 277.481000199914 C505.5885060623099 276.97473147928446 506.36035781985373 276.3467385867369 507.02902237021686 275.6170002371073 C508.07803151810026 274.54453728031615 508.5217013577409 273.01425219237973 508.2090223177648 271.5470000654459 C508.0939820266969 271.01518684420074 507.9240710291712 270.4967424558237 507.70202035152676 270.0 Z "></path>
      <radialGradient id="s-Path_1-d1224-gradient" cx="489.62178662699574" cy="284.25402112499944" r="18.366842372093224" gradientUnits="userSpaceOnUse">
        <stop stop-color="#F77E06" offset="33.799999952316284%" stop-opacity="1.0"></stop>
        <stop stop-color="#D76F07" offset="73.90000224113464%" stop-opacity="1.0"></stop>
        <stop stop-color="#C16508" offset="100.0%" stop-opacity="1.0"></stop>
      </radialGradient>
      <path id="s-Path_2-d1224" d="M504.6091101133774 283.0 C505.1487718400153 283.0744024551186 505.6394226483135 283.35431355951374 505.97811007141576 283.7810000181198 C506.3498858753243 284.22241564939713 506.5922153476168 284.75830996965675 506.6781100594948 285.3289999961853 C506.77540130267175 285.93599621646 506.7062714204708 286.5581651305163 506.4781100565146 287.1289999485016 C506.2311371482738 287.70911907042876 505.84712909014996 288.22078668235 505.35911009847626 288.6200000047684 C504.93135402532323 288.96369094227214 504.47990141900664 289.2768005624048 504.00811014711365 289.55699998140335 L502.71611009180054 290.3569999933243 C501.84944345692304 290.87899998823804 500.9727767521094 291.38233331839245 500.0861099773596 291.86699998378754 C496.53808544792116 293.7896417422714 492.8705793728381 295.4831077901264 489.1061104351233 296.9370001554489 L486.28011045991883 297.9940001964569 C485.33211044609055 298.32400020956993 484.3801104837607 298.6610001921654 483.4331105762671 298.9750002026558 C481.53911052286134 299.6030002236366 479.63811049997315 300.2120001912117 477.7181104236792 300.7750001549721 C476.75877708335224 301.0576668183009 475.79544371505085 301.33000014225644 474.82811031877503 301.5920001268387 C473.9666996871509 301.75478281682956 473.13900193108645 302.0621264677121 472.3801103645514 302.5010001063347 C470.88618958393926 303.5234884601891 470.4982593167318 305.5941802763008 471.5207476705862 307.08810105691293 C471.54009850819597 307.1163738663963 471.55988846837363 307.14434360875487 471.58011035263047 307.1720001101494 C471.1171487729334 306.9073666144977 470.72948505517894 306.5286542867221 470.45411030590043 306.0720000863075 C470.1740752571779 305.57869347578344 470.01952762620556 305.0240391822141 470.00411031782136 304.4570000767708 C469.953953578283 303.2624724868065 470.3643850280917 302.0931368023897 471.1501103454779 301.1919999718666 C471.55697314753513 300.7448835334312 472.03222573431424 300.3651540142383 472.5581103378485 300.0669999718666 C473.0581103378485 299.7739999592304 473.53011034070954 299.5669999718666 473.97511039316163 299.345999956131 C474.88177706936506 298.9153332710266 475.7924437735429 298.49499992529553 476.7071105056952 298.0849999189377 C478.53511045515046 297.2599999308586 480.3821104580115 296.4849998950958 482.23711071550355 295.72500002384186 L485.0101107174109 294.6190000772476 L487.78311071931824 293.5350000858307 L498.88311110078797 289.2720000743866 L501.6691111141394 288.21200013160706 L503.06911109029755 287.6820001602173 C503.5008699690304 287.53488617788145 503.9238899124001 287.3632742937767 504.33611105024323 287.1680001616478 C504.6815659144474 287.0081045239041 504.9854824640969 286.77058415850144 505.2241110616873 286.47400015592575 C505.46475376058436 286.15173785638956 505.6183735755235 285.772854904838 505.6701110714625 285.3740001320839 C505.73060449795025 284.9384352252081 505.67826076607906 284.4945465781781 505.51811107635007 284.0850000977516 C505.3591125339027 283.6238636409246 505.0352662438985 283.23731481355924 504.6091101133774 283.0 Z "></path>
      <radialGradient id="s-Path_2-d1224-gradient" cx="488.36047720951234" cy="294.8926243826876" r="16.920399788951872" gradientUnits="userSpaceOnUse">
        <stop stop-color="#F77E06" offset="33.799999952316284%" stop-opacity="1.0"></stop>
        <stop stop-color="#D76F07" offset="73.90000224113464%" stop-opacity="1.0"></stop>
        <stop stop-color="#C16508" offset="100.0%" stop-opacity="1.0"></stop>
      </radialGradient>
      <path id="s-Path_3-d1224" d="M504.6478466896728 291.0 C505.190282549671 291.07591009443405 505.68287234244326 291.35877279259023 506.02184664294276 291.78899997472763 C506.39300805292913 292.2350168592898 506.63297705639707 292.77555308128683 506.7148466615394 293.3499999642372 C506.8079914248214 293.9584240877391 506.73329586284945 294.5808870715361 506.4988466559366 295.1499999165535 C506.2443837481984 295.7297885472689 505.85360068656485 296.2396248749201 505.35984659776244 296.63599985837936 C504.92889968302705 296.9765401287662 504.4759117959777 297.2882198691841 504.0038466511682 297.56899988651276 C503.57384664401565 297.8409999012947 503.13884664163146 298.1039999127388 502.7038466988519 298.3689998984337 C501.8325133381799 298.8929999073347 500.9501799800511 299.3983332514763 500.0568466244653 299.8849999308586 C496.48631488411087 301.8164396712341 492.79576159807624 303.5172540185938 489.00784683808854 304.97699993848795 L486.1638467369989 306.0379999279976 C485.210846727939 306.3699999153614 484.2518467961267 306.7079999446869 483.30084682092223 307.0239999294281 C481.4008468447641 307.65599995851517 479.48384690866027 308.2689999341965 477.551846748443 308.8329999446869 C476.5871800639744 309.1176666021347 475.6181800423578 309.3919999400774 474.64484668359313 309.65599995851517 C473.799250774026 309.81013518149274 472.99465531858186 310.13769373655083 472.28184676751647 310.61799997091293 C471.6317593397698 311.1634717530351 471.1937336181239 311.92054451500417 471.04484677896056 312.755999982357 C470.95689338283046 313.19512289451586 470.9785339323018 313.64923093449806 471.10784677997384 314.0780000090599 C471.2594844749606 314.5448158487603 471.50829142797545 314.97426345182174 471.8378467990473 315.33799999952316 C471.35668200978233 315.10406354629924 470.9380933826012 314.75883934487274 470.61684684291635 314.33100003004074 C470.2833109184471 313.86269137762235 470.07939988582893 313.3144432949378 470.02584682241235 312.7420000433922 C469.9001783909147 311.54792176053695 470.23593583330296 310.3498619603064 470.96384684577737 309.39500015974045 C471.34942393167915 308.9114979322891 471.8152089072526 308.4978050790739 472.34084682002816 308.1720001101494 C472.8094290276198 307.89026979456037 473.2935316174717 307.6351978181524 473.7908468677119 307.4080001115799 C474.7028468880569 306.97533345222473 475.61918024555 306.5530001322428 476.5398469401911 306.1410001516342 C478.3788469268397 305.3110001683235 480.23984698787484 304.53000020980835 482.1028471423701 303.7680002450943 L484.89384703174386 302.6560002565384 L487.6838469935969 301.5680001974106 L498.8548474220947 297.28900146484375 L501.65484737441096 296.2220014333725 L503.0548473505691 295.6880014538765 C503.49165917546793 295.53841609328424 503.9202574302905 295.36584187258745 504.33884738966975 295.1710014343262 C504.68767217256993 295.01198255240024 504.9955460028724 294.775261788454 505.2388473658279 294.47900146245956 C505.4836245951462 294.15819366382016 505.640479818225 293.7789832371084 505.6938473789409 293.3790014386177 C505.75794394035813 292.94027561251943 505.70729240044096 292.49233684020334 505.5468473790601 292.0790014863014 C505.38864311748335 291.6219698863414 505.0688137811685 291.2381032961148 504.6478466896728 291.0 Z "></path>
      <radialGradient id="s-Path_3-d1224-gradient" cx="488.37689497012065" cy="302.99863401717283" r="16.96358664956236" gradientUnits="userSpaceOnUse">
        <stop stop-color="#F77E06" offset="33.799999952316284%" stop-opacity="1.0"></stop>
        <stop stop-color="#D76F07" offset="73.90000224113464%" stop-opacity="1.0"></stop>
        <stop stop-color="#C16508" offset="100.0%" stop-opacity="1.0"></stop>
      </radialGradient>
      <path id="s-Path_4-d1224" d="M505.59452402390605 299.0 C506.1329299311452 299.0736742520727 506.62275869620584 299.35209192571637 506.9615240076936 299.7770000100136 C507.3319378449198 300.217351036923 507.5741457855743 300.7512465435468 507.66152399577265 301.31999999284744 C507.7589316687318 301.92345707524566 507.69226070750295 302.542149768752 507.46852399207717 303.1110000014305 C507.22449098115675 303.69149758927267 506.84321661989964 304.20421037914286 506.3575240502513 304.60499995946884 C505.931183814508 304.95024637339634 505.48033073947636 305.2640722068783 505.0085240731395 305.54399996995926 L503.72052408553725 306.33799999952316 C502.85385745065975 306.85866667826974 501.97985745765334 307.3606666922569 501.0985241065181 307.84400004148483 C497.56086853498266 309.76316831072904 493.9036829747691 311.4533097044053 490.14952374793654 312.9039999842644 C489.21152378417617 313.26266664266586 488.2721904247757 313.61433329184854 487.33152366973525 313.9589999318123 C486.3855236897624 314.2889999449253 485.4375236163295 314.62499994039536 484.49152375556594 314.93799990415573 C482.6025236973918 315.5639998912811 480.70652366973525 316.17099994421005 478.7915239463008 316.7289999127388 C477.8348573177811 317.0103332400322 476.87385735211336 317.28166657686234 475.9085240492976 317.5429999232292 C475.04108122130526 317.7108542001461 474.2041742709057 318.00960500823567 473.42652393676406 318.42899990081787 C472.7350476618934 318.90499853591086 472.2342149601563 319.61105567851115 472.0135239491618 320.4209998846054 C471.7290048301044 321.32585658299126 471.89945823657706 322.3146355697636 472.47052393652564 323.0719999074936 C472.01736216954953 322.7921955619628 471.64503292297934 322.39883661239963 471.3905238936103 321.93099987506866 C471.13396648129356 321.42849741462834 471.00029240853195 320.87220759029015 471.0005239079154 320.30799984931946 C470.98261687438617 319.11563283529927 471.4243527729029 317.9609574285063 472.23352394796973 317.0849997997284 C472.6497330602038 316.6545589596502 473.1280397284039 316.288834687324 473.65252397753363 315.9999997615814 C474.15252397753363 315.7179997563362 474.60852394796973 315.5129997730255 475.0525239536918 315.29999977350235 C475.95652391808795 314.86999978621805 476.86485721963214 314.450333138307 477.77752385832434 314.04099982976913 C479.600523812548 313.21699982881546 481.44252382017737 312.4409998059273 483.29252372480994 311.6869997382164 L486.0565236637748 310.58699971437454 L488.82152376867896 309.50599974393845 L499.8925238678611 305.2519995570183 L502.67052398420935 304.1949995160103 L504.0635239908851 303.6659995317459 C504.4932304511791 303.5198829461582 504.91395896996994 303.34858632981843 505.32352398134833 303.1529995203018 C505.6666941102332 302.9925934243839 505.9682209375146 302.75506831195565 506.20452396370536 302.4589995145798 C506.4433851588924 302.13613009013784 506.5955755607232 301.7573756896619 506.6465239653743 301.3589994907379 C506.70581612892903 300.9242441555025 506.6527924701799 300.4814621670039 506.49252396620875 300.0729994773865 C506.33395837040183 299.6179965417609 506.01447237826767 299.23625007782107 505.59452402390605 299.0 Z "></path>
      <radialGradient id="s-Path_4-d1224-gradient" cx="489.3525398950272" cy="310.8193518742304" r="16.874471338274958" gradientUnits="userSpaceOnUse">
        <stop stop-color="#F77E06" offset="33.799999952316284%" stop-opacity="1.0"></stop>
        <stop stop-color="#D76F07" offset="73.90000224113464%" stop-opacity="1.0"></stop>
        <stop stop-color="#C16508" offset="100.0%" stop-opacity="1.0"></stop>
      </radialGradient>
      <path id="s-Path_5-d1224" d="M504.6322961972079 307.0 C505.32069142840146 307.1425131733672 505.9079288425739 307.591230369424 506.2262961790881 308.21800005435944 C506.97728099645144 309.607714097346 506.6364645590688 311.3505541510673 505.4172961638293 312.3550001382828 C505.14140612809473 312.5968792998084 504.8468209849824 312.8165642537765 504.53629618147227 313.012000143528 L503.6922961995921 313.53900015354156 C501.4562961385569 314.90900015830994 499.15229623773905 316.1630002260208 496.8112961576304 317.33900010585785 C492.1230323050944 319.6478869503462 487.30840104430087 321.6907917037687 482.3902966306529 323.4580000638961 L478.7392966077647 324.78400003910065 L475.0702966974101 326.0640000104904 C474.52795105522307 326.2296157293807 473.99684885062504 326.4300316594006 473.48029666403147 326.6640000343323 C473.29799716009325 326.75560446329445 473.12487528855405 326.8644334846848 472.96329664448115 326.98900002241135 C472.8159099313596 327.1021832091236 472.68410396079173 327.23432542511296 472.57129665473315 327.38200002908707 C472.0893252328116 327.9878909559005 471.9218734579514 328.7876495510014 472.12029664972636 329.5360000729561 C472.2870525366296 329.9093692152224 472.55134684683964 330.23101366737194 472.88529663542124 330.46700006723404 C472.98529663691136 330.5390000641346 473.0932966397128 330.6180000603199 473.1922966466269 330.6820000708103 C473.272670129058 330.73493154682205 473.3576863644379 330.7804520518261 473.44629665473315 330.8180000782013 C473.5232966543159 330.8640000782907 473.6462966577134 330.89000007510185 473.7462966666541 330.93400007486343 C473.8462966755948 330.978000074625 473.97529666879984 330.99100007489324 474.0922966525874 331.02100007236004 C475.2257323264383 331.15319457226474 476.37444011666645 331.041699338354 477.4612966106257 330.69400008022785 C479.90465326518046 329.9180666401811 482.2657099172131 328.9035055791345 484.51029639700266 327.66500003635883 C482.63505501934196 329.5638284968385 480.4704581225899 331.1532697655888 478.09729629019114 332.37400014698505 C476.78882913880096 333.04958362901084 475.3388571146129 333.40599366656176 473.8662963435969 333.4140001088381 C473.443122894322 333.3976559193329 473.023443719825 333.3305072504128 472.6162963435969 333.21400010585785 C472.3959972465924 333.1515676266948 472.18125976350825 333.0709574535943 471.9742963240466 332.9730001091957 C471.7862963304839 332.884000107646 471.6202963219008 332.7960001081228 471.44229631880137 332.69500011205673 C470.6554540581543 332.2606005917014 470.00266885285095 331.61853947414113 469.5552963540873 330.8390001654625 C469.1080811146072 329.99812884226844 468.9243968798899 329.0417160855712 469.02829634407374 328.09500020742416 C469.1186767168751 327.2066121851784 469.4130135748942 326.3509817981924 469.88829635837885 325.59500020742416 C470.13564365684783 325.2017292327781 470.43239901318606 324.84179154890535 470.7712963745913 324.5240002274513 C471.0980326261176 324.2204807130952 471.45797832420277 323.95479851039175 471.84429632881495 323.73200023174286 C472.18728188337724 323.5349602209585 472.541937125574 323.35896840381054 472.9062963650546 323.2050002217293 C473.2422963605246 323.0600002259016 473.5342963860354 322.9440002143383 473.8372963593325 322.82300022244453 L477.47129642227503 321.40400019288063 L481.1222964451632 320.0310001671314 C485.9972964451632 318.25100019574165 490.8342963383517 316.5310001671314 495.66329681137415 314.71600010991096 C498.0779634640536 313.81333346168196 500.4886300887586 312.88900012771285 502.89529668548914 311.9430001080036 C503.4692522049574 311.74966109314636 504.0275531107215 311.51263393891463 504.5652966425738 311.2340001165867 C505.0264307584364 310.98285963829085 505.39104970673077 310.58515751037186 505.60129665592524 310.10400012135506 C505.82364153375744 309.5752517982045 505.86444999740314 308.98739882518885 505.7172966525874 308.43300011754036 C505.5836852067225 307.81953304667366 505.1865280939333 307.29499300018136 504.6322961972079 307.0 Z "></path>
      <radialGradient id="s-Path_5-d1224-gradient" cx="488.3381536544977" cy="319.65230610881173" r="17.248341995500205" gradientUnits="userSpaceOnUse">
        <stop stop-color="#F77E06" offset="0.0%" stop-opacity="1.0"></stop>
        <stop stop-color="#F28705" offset="33.799999952316284%" stop-opacity="1.0"></stop>
        <stop stop-color="#D76F07" offset="73.90000224113464%" stop-opacity="1.0"></stop>
        <stop stop-color="#C16508" offset="100.0%" stop-opacity="1.0"></stop>
      </radialGradient>
    </defs>
    <text x="514.0" y="289.48046875" font-family="SegoeUI" font-weight="400" font-style="normal" font-size="30.0" fill="#F28705" id="s-Paragraph_1-d1224">
      <tspan font-family="SegoeUI" font-weight="400" font-style="normal" font-size="30.0" fill="#F28705" dy="0.0" x="514.0">موهوب</tspan>
    </text>
    <text x="514.0" y="322.068359375" font-family="Cairo" font-weight="400" font-style="normal" font-size="23.0" fill="#EAEAEA" id="s-Paragraph_2-d1224">
      <tspan font-family="Cairo" font-weight="400" font-style="normal" font-size="23.0" fill="#EAEAEA" dy="0.0" x="514.0">Mwhob</tspan>
    </text>
    <g>
      <use xmlns:xlink="http://www.w3.org/1999/xlink" xlink:href="#s-Path_1-d1224" fill="url(#s-Path_1-d1224-gradient)" fill-opacity="1.0" filter="none"></use>
    </g>
    <g>
      <use xmlns:xlink="http://www.w3.org/1999/xlink" xlink:href="#s-Path_2-d1224" fill="url(#s-Path_2-d1224-gradient)" fill-opacity="1.0" filter="none"></use>
    </g>
    <g>
      <use xmlns:xlink="http://www.w3.org/1999/xlink" xlink:href="#s-Path_3-d1224" fill="url(#s-Path_3-d1224-gradient)" fill-opacity="1.0" filter="none"></use>
    </g>
    <g>
      <use xmlns:xlink="http://www.w3.org/1999/xlink" xlink:href="#s-Path_4-d1224" fill="url(#s-Path_4-d1224-gradient)" fill-opacity="1.0" filter="none"></use>
    </g>
    <g>
      <use xmlns:xlink="http://www.w3.org/1999/xlink" xlink:href="#s-Path_5-d1224" fill="url(#s-Path_5-d1224-gradient)" fill-opacity="1.0" filter="none"></use>
    </g>
  </g>
</svg>
